<svg width="40" height="41" viewBox="0 0 40 41" fill="none" xmlns="http://www.w3.org/2000/svg">
<path d="M5.71429 0C2.5625 0 0 2.57852 0 5.75V34.5C0 37.6715 2.5625 40.25 5.71429 40.25H34.2857C37.4375 40.25 40 37.6715 40 34.5V5.75C40 2.57852 37.4375 0 34.2857 0H5.71429ZM13.5714 17.9688H26.4286C27.6161 17.9688 28.5714 18.9301 28.5714 20.125C28.5714 21.3199 27.6161 22.2812 26.4286 22.2812H13.5714C12.3839 22.2812 11.4286 21.3199 11.4286 20.125C11.4286 18.9301 12.3839 17.9688 13.5714 17.9688Z" fill="white"/>
</svg>
