<svg width="27" height="27" viewBox="0 0 27 27" fill="none" xmlns="http://www.w3.org/2000/svg">
<path d="M3.85714 0C1.72969 0 0 1.72969 0 3.85714V23.1429C0 25.2703 1.72969 27 3.85714 27H23.1429C25.2703 27 27 25.2703 27 23.1429V3.85714C27 1.72969 25.2703 0 23.1429 0H3.85714ZM8.6183 8.6183C9.18482 8.05179 10.1009 8.05179 10.6614 8.6183L13.494 11.4509L16.3266 8.6183C16.8931 8.05179 17.8092 8.05179 18.3696 8.6183C18.9301 9.18482 18.9362 10.1009 18.3696 10.6614L15.5371 13.494L18.3696 16.3266C18.9362 16.8931 18.9362 17.8092 18.3696 18.3696C17.8031 18.9301 16.8871 18.9362 16.3266 18.3696L13.494 15.5371L10.6614 18.3696C10.0949 18.9362 9.1788 18.9362 8.6183 18.3696C8.05781 17.8031 8.05179 16.8871 8.6183 16.3266L11.4509 13.494L8.6183 10.6614C8.05179 10.0949 8.05179 9.1788 8.6183 8.6183Z" fill="white"/>
</svg>
