<svg width="40" height="41" viewBox="0 0 40 41" fill="none" xmlns="http://www.w3.org/2000/svg">
<path d="M5.71429 0C2.5625 0 0 2.57852 0 5.75V34.5C0 37.6715 2.5625 40.25 5.71429 40.25H34.2857C37.4375 40.25 40 37.6715 40 34.5V5.75C40 2.57852 37.4375 0 34.2857 0H5.71429ZM17.8571 28.0312V22.2812H12.1429C10.9554 22.2812 10 21.3199 10 20.125C10 18.9301 10.9554 17.9688 12.1429 17.9688H17.8571V12.2188C17.8571 11.0238 18.8125 10.0625 20 10.0625C21.1875 10.0625 22.1429 11.0238 22.1429 12.2188V17.9688H27.8571C29.0446 17.9688 30 18.9301 30 20.125C30 21.3199 29.0446 22.2812 27.8571 22.2812H22.1429V28.0312C22.1429 29.2262 21.1875 30.1875 20 30.1875C18.8125 30.1875 17.8571 29.2262 17.8571 28.0312Z" fill="white"/>
</svg>
