<svg width="24" height="27" viewBox="0 0 24 27" fill="none" xmlns="http://www.w3.org/2000/svg">
<g clip-path="url(#clip0_777_627)">
<path d="M7.24286 0.933398C7.53214 0.358594 8.12679 0 8.775 0H15.225C15.8732 0 16.4679 0.358594 16.7571 0.933398L17.1429 1.6875H22.2857C23.2339 1.6875 24 2.4416 24 3.375C24 4.3084 23.2339 5.0625 22.2857 5.0625H1.71429C0.766071 5.0625 0 4.3084 0 3.375C0 2.4416 0.766071 1.6875 1.71429 1.6875H6.85714L7.24286 0.933398ZM1.71429 6.75H22.2857V23.625C22.2857 25.4865 20.7482 27 18.8571 27H5.14286C3.25179 27 1.71429 25.4865 1.71429 23.625V6.75ZM6.85714 10.125C6.38571 10.125 6 10.5047 6 10.9688V22.7812C6 23.2453 6.38571 23.625 6.85714 23.625C7.32857 23.625 7.71429 23.2453 7.71429 22.7812V10.9688C7.71429 10.5047 7.32857 10.125 6.85714 10.125ZM12 10.125C11.5286 10.125 11.1429 10.5047 11.1429 10.9688V22.7812C11.1429 23.2453 11.5286 23.625 12 23.625C12.4714 23.625 12.8571 23.2453 12.8571 22.7812V10.9688C12.8571 10.5047 12.4714 10.125 12 10.125ZM17.1429 10.125C16.6714 10.125 16.2857 10.5047 16.2857 10.9688V22.7812C16.2857 23.2453 16.6714 23.625 17.1429 23.625C17.6143 23.625 18 23.2453 18 22.7812V10.9688C18 10.5047 17.6143 10.125 17.1429 10.125Z" fill="#C94940"/>
</g>
<defs>
<clipPath id="clip0_777_627">
<rect width="24" height="27" fill="white"/>
</clipPath>
</defs>
</svg>
