<svg width="102" height="89" viewBox="0 0 102 89" fill="none" xmlns="http://www.w3.org/2000/svg">
<path d="M4.26629 0C1.90205 0 0 1.85996 0 4.17188C0 6.48379 1.90205 8.34375 4.26629 8.34375H13.5277L24.2467 63.3604C24.6378 65.3246 26.3976 66.75 28.4419 66.75H86.7478C89.112 66.75 91.0141 64.89 91.0141 62.5781C91.0141 60.2662 89.112 58.4063 86.7478 58.4063H31.9794L30.3617 50.0625H86.7123C89.2543 50.0625 91.4941 48.4111 92.1873 46.0123L101.786 12.6373C102.8 9.09121 100.08 5.5625 96.3114 5.5625H21.687L21.2603 3.38965C20.8692 1.42539 19.1094 0 17.0651 0H4.26629ZM31.2861 89C35.9968 89 39.8187 85.2627 39.8187 80.6563C39.8187 76.0498 35.9968 72.3125 31.2861 72.3125C26.5754 72.3125 22.7535 76.0498 22.7535 80.6563C22.7535 85.2627 26.5754 89 31.2861 89ZM91.0141 80.6563C91.0141 76.0498 87.1922 72.3125 82.4815 72.3125C77.7708 72.3125 73.949 76.0498 73.949 80.6563C73.949 85.2627 77.7708 89 82.4815 89C87.1922 89 91.0141 85.2627 91.0141 80.6563Z" fill="#444444"/>
</svg>
