<svg width="50" height="50" viewBox="0 0 50 50" fill="none" xmlns="http://www.w3.org/2000/svg">
<circle cx="25" cy="25" r="25" fill="#D9D9D9"/>
<g clip-path="url(#clip0_544_239)">
<path d="M44.375 25C44.375 14.2969 35.7031 5.625 25 5.625C14.2969 5.625 5.625 14.2969 5.625 25C5.625 34.6703 12.7102 42.6859 21.9727 44.1406V30.6008H17.0508V25H21.9727V20.7312C21.9727 15.8758 24.8633 13.1937 29.2906 13.1937C31.4109 13.1937 33.6281 13.5719 33.6281 13.5719V18.3375H31.1844C28.7781 18.3375 28.0273 19.8312 28.0273 21.3633V25H33.4008L32.5414 30.6008H28.0273V44.1406C37.2898 42.6859 44.375 34.6703 44.375 25Z" fill="#2A2F99"/>
</g>
<defs>
<clipPath id="clip0_544_239">
<rect width="40" height="40" fill="white" transform="translate(5 5)"/>
</clipPath>
</defs>
</svg>
