<svg width="24" height="21" viewBox="0 0 24 21" fill="none" xmlns="http://www.w3.org/2000/svg">
<g clip-path="url(#clip0_218_108)">
<path d="M13.2 5.25C13.2 8.1498 11.0513 10.5 8.4 10.5C5.74875 10.5 3.6 8.1498 3.6 5.25C3.6 2.3502 5.74875 0 8.4 0C11.0513 0 13.2 2.3502 13.2 5.25ZM0 19.7818C0 15.7418 2.9925 12.4688 6.68625 12.4688H10.1138C13.8075 12.4688 16.8 15.7418 16.8 19.7818C16.8 20.4545 16.3013 21 15.6862 21H1.11375C0.49875 21 0 20.4545 0 19.7818ZM18.9 12.7969V10.1719H16.5C16.0013 10.1719 15.6 9.73301 15.6 9.1875C15.6 8.64199 16.0013 8.20312 16.5 8.20312H18.9V5.57812C18.9 5.03262 19.3013 4.59375 19.8 4.59375C20.2987 4.59375 20.7 5.03262 20.7 5.57812V8.20312H23.1C23.5988 8.20312 24 8.64199 24 9.1875C24 9.73301 23.5988 10.1719 23.1 10.1719H20.7V12.7969C20.7 13.3424 20.2987 13.7812 19.8 13.7812C19.3013 13.7812 18.9 13.3424 18.9 12.7969Z" fill="#FAFAFA"/>
</g>
<defs>
<clipPath id="clip0_218_108">
<rect width="24" height="21" fill="white"/>
</clipPath>
</defs>
</svg>
