<svg width="24" height="21" viewBox="0 0 24 21" fill="none" xmlns="http://www.w3.org/2000/svg">
<path d="M1 0C0.445833 0 0 0.438867 0 0.984375C0 1.52988 0.445833 1.96875 1 1.96875H3.17083L5.68333 14.9502C5.775 15.4137 6.1875 15.75 6.66667 15.75H20.3333C20.8875 15.75 21.3333 15.3111 21.3333 14.7656C21.3333 14.2201 20.8875 13.7812 20.3333 13.7812H7.49583L7.11667 11.8125H20.325C20.9208 11.8125 21.4458 11.4229 21.6083 10.8568L23.8583 2.98184C24.0958 2.14512 23.4583 1.3125 22.575 1.3125H5.08333L4.98333 0.799805C4.89167 0.336328 4.47917 0 4 0H1ZM7.33333 21C8.4375 21 9.33333 20.1182 9.33333 19.0312C9.33333 17.9443 8.4375 17.0625 7.33333 17.0625C6.22917 17.0625 5.33333 17.9443 5.33333 19.0312C5.33333 20.1182 6.22917 21 7.33333 21ZM21.3333 19.0312C21.3333 17.9443 20.4375 17.0625 19.3333 17.0625C18.2292 17.0625 17.3333 17.9443 17.3333 19.0312C17.3333 20.1182 18.2292 21 19.3333 21C20.4375 21 21.3333 20.1182 21.3333 19.0312Z" fill="#FAFAFA"/>
</svg>
