<svg width="24" height="18" viewBox="0 0 24 18" fill="none" xmlns="http://www.w3.org/2000/svg">
<path d="M1.125 0C0.501562 0 0 0.438867 0 0.984375V2.95312C0 3.49863 0.501562 3.9375 1.125 3.9375H3.375C3.99844 3.9375 4.5 3.49863 4.5 2.95312V0.984375C4.5 0.438867 3.99844 0 3.375 0H1.125ZM8.25 0.65625C7.42031 0.65625 6.75 1.24277 6.75 1.96875C6.75 2.69473 7.42031 3.28125 8.25 3.28125H21.75C22.5797 3.28125 23.25 2.69473 23.25 1.96875C23.25 1.24277 22.5797 0.65625 21.75 0.65625H8.25ZM8.25 7.21875C7.42031 7.21875 6.75 7.80527 6.75 8.53125C6.75 9.25723 7.42031 9.84375 8.25 9.84375H21.75C22.5797 9.84375 23.25 9.25723 23.25 8.53125C23.25 7.80527 22.5797 7.21875 21.75 7.21875H8.25ZM8.25 13.7812C7.42031 13.7812 6.75 14.3678 6.75 15.0938C6.75 15.8197 7.42031 16.4062 8.25 16.4062H21.75C22.5797 16.4062 23.25 15.8197 23.25 15.0938C23.25 14.3678 22.5797 13.7812 21.75 13.7812H8.25ZM0 7.54688V9.51562C0 10.0611 0.501562 10.5 1.125 10.5H3.375C3.99844 10.5 4.5 10.0611 4.5 9.51562V7.54688C4.5 7.00137 3.99844 6.5625 3.375 6.5625H1.125C0.501562 6.5625 0 7.00137 0 7.54688ZM1.125 13.125C0.501562 13.125 0 13.5639 0 14.1094V16.0781C0 16.6236 0.501562 17.0625 1.125 17.0625H3.375C3.99844 17.0625 4.5 16.6236 4.5 16.0781V14.1094C4.5 13.5639 3.99844 13.125 3.375 13.125H1.125Z" fill="#FAFAFA"/>
</svg>
