<svg width="31" height="28" viewBox="0 0 31 28" fill="none" xmlns="http://www.w3.org/2000/svg">
<path d="M28.7857 0H2.20737C0.989506 0 0 0.906253 0 2.01875V25.9812C0 27.0938 0.989506 28 2.20737 28H28.7857C30.0036 28 31 27.0938 31 25.9812V2.01875C31 0.906253 30.0036 0 28.7857 0ZM9.36919 24H4.77456V10.6375H9.37609V24H9.36919ZM7.07188 8.81249C5.59799 8.81249 4.40781 7.73126 4.40781 6.40627C4.40781 5.08122 5.59799 4 7.07188 4C8.53881 4 9.7359 5.08122 9.7359 6.40627C9.7359 7.73747 8.54578 8.81249 7.07188 8.81249ZM26.5921 24H21.9975V17.5C21.9975 15.95 21.9629 13.9563 19.6102 13.9563C17.2161 13.9563 16.8493 15.6437 16.8493 17.3875V24H12.2547V10.6375H16.6625V12.4625H16.7248C17.3406 11.4125 18.8422 10.3063 21.0773 10.3063C25.7273 10.3063 26.5921 13.075 26.5921 16.675V24Z" fill="#4E67C0"/>
</svg>
