<svg width="24" height="21" viewBox="0 0 24 21" fill="none" xmlns="http://www.w3.org/2000/svg">
<path d="M3.51562 3.07617L1.92188 1.68164C1.21406 1.0623 0 1.50117 0 2.3748V6.89062C0 7.43613 0.501562 7.875 1.125 7.875H6.28594C7.28906 7.875 7.79063 6.8127 7.08281 6.19336L5.63906 4.93008C7.26562 3.50684 9.51562 2.625 12 2.625C16.9688 2.625 21 6.15234 21 10.5C21 14.8477 16.9688 18.375 12 18.375C10.0875 18.375 8.31563 17.8541 6.85781 16.9641C6.17813 16.5498 5.24531 16.6934 4.76719 17.2881C4.28906 17.8828 4.45781 18.699 5.1375 19.1174C7.0875 20.3027 9.45469 21 12 21C18.6281 21 24 16.2996 24 10.5C24 4.70039 18.6281 0 12 0C8.68594 0 5.68594 1.17715 3.51562 3.07617ZM12 5.25C11.3766 5.25 10.875 5.68887 10.875 6.23438V10.5C10.875 10.7625 10.9922 11.0127 11.2031 11.1973L14.5781 14.1504C15.0188 14.5359 15.7312 14.5359 16.1672 14.1504C16.6031 13.7648 16.6078 13.1414 16.1672 12.76L13.1203 10.0939V6.23438C13.1203 5.68887 12.6187 5.25 11.9953 5.25H12Z" fill="#FAFAFA"/>
</svg>
