<svg width="24" height="24" viewBox="0 0 24 24" fill="none" xmlns="http://www.w3.org/2000/svg">
<path d="M16.5 4.5H19.5C20.3297 4.5 21 5.17031 21 6V18C21 18.8297 20.3297 19.5 19.5 19.5H16.5C15.6703 19.5 15 20.1703 15 21C15 21.8297 15.6703 22.5 16.5 22.5H19.5C21.9844 22.5 24 20.4844 24 18V6C24 3.51562 21.9844 1.5 19.5 1.5H16.5C15.6703 1.5 15 2.17031 15 3C15 3.82969 15.6703 4.5 16.5 4.5ZM16.1484 12.8156C16.3734 12.6047 16.5 12.3094 16.5 12C16.5 11.6906 16.3734 11.3953 16.1484 11.1844L9.39844 4.80937C9.07031 4.5 8.59219 4.41563 8.17969 4.59375C7.76719 4.77187 7.5 5.17969 7.5 5.625V9H1.5C0.670312 9 0 9.67031 0 10.5V13.5C0 14.3297 0.670312 15 1.5 15H7.5V18.375C7.5 18.825 7.76719 19.2281 8.17969 19.4062C8.59219 19.5844 9.07031 19.5 9.39844 19.1906L16.1484 12.8156Z" fill="#FAFAFA"/>
</svg>
