<svg width="24" height="21" viewBox="0 0 24 21" fill="none" xmlns="http://www.w3.org/2000/svg">
<path d="M4.5 0C2.84531 0 1.5 1.17715 1.5 2.625V18.375C1.5 19.8229 2.84531 21 4.5 21H18C19.6547 21 21 19.8229 21 18.375V2.625C21 1.17715 19.6547 0 18 0H4.5ZM9.75 11.8125H12.75C14.8219 11.8125 16.5 13.2809 16.5 15.0938C16.5 15.4547 16.1625 15.75 15.75 15.75H6.75C6.3375 15.75 6 15.4547 6 15.0938C6 13.2809 7.67812 11.8125 9.75 11.8125ZM14.25 7.875C14.25 9.32285 12.9047 10.5 11.25 10.5C9.59531 10.5 8.25 9.32285 8.25 7.875C8.25 6.42715 9.59531 5.25 11.25 5.25C12.9047 5.25 14.25 6.42715 14.25 7.875ZM24 3.28125C24 2.92031 23.6625 2.625 23.25 2.625C22.8375 2.625 22.5 2.92031 22.5 3.28125V5.90625C22.5 6.26719 22.8375 6.5625 23.25 6.5625C23.6625 6.5625 24 6.26719 24 5.90625V3.28125ZM23.25 7.875C22.8375 7.875 22.5 8.17031 22.5 8.53125V11.1562C22.5 11.5172 22.8375 11.8125 23.25 11.8125C23.6625 11.8125 24 11.5172 24 11.1562V8.53125C24 8.17031 23.6625 7.875 23.25 7.875ZM24 13.7812C24 13.4203 23.6625 13.125 23.25 13.125C22.8375 13.125 22.5 13.4203 22.5 13.7812V16.4062C22.5 16.7672 22.8375 17.0625 23.25 17.0625C23.6625 17.0625 24 16.7672 24 16.4062V13.7812Z" fill="#FAFAFA"/>
</svg>
