<svg width="31" height="34" viewBox="0 0 31 34" fill="none" xmlns="http://www.w3.org/2000/svg">
<path d="M24.5637 19.27L24.3756 19.539L24.6026 19.776L30.29 25.7142L30.2901 25.7143C30.7033 26.1454 30.7033 26.8527 30.2901 27.2838C29.886 27.7054 29.2366 27.7054 28.8325 27.2838L23.1453 21.3457L22.8978 21.0873L22.6135 21.3046C21.1347 22.4348 19.3145 23.0971 17.3442 23.0971C12.4191 23.0971 8.4 18.9289 8.4 13.7486C8.4 8.5682 12.4191 4.4 17.3442 4.4C22.2693 4.4 26.2884 8.5682 26.2884 13.7486C26.2884 15.8159 25.6453 17.7234 24.5637 19.27ZM17.3442 20.8976C21.1524 20.8976 24.2133 17.6794 24.2133 13.7486C24.2133 9.81778 21.1524 6.59956 17.3442 6.59956C13.536 6.59956 10.4751 9.81778 10.4751 13.7486C10.4751 17.6794 13.536 20.8976 17.3442 20.8976Z" fill="#0E1525" stroke="#FAFAFA" stroke-width="0.8"/>
<line x1="0.679192" y1="0.320125" x2="0.499931" y2="33.0025" stroke="#8D8D8D"/>
</svg>
