<svg width="31" height="34" viewBox="0 0 31 34" fill="none" xmlns="http://www.w3.org/2000/svg">
<path d="M24.4817 20.2127L24.2466 20.5489L24.5304 20.8451L30.2177 26.7833L30.2179 26.7835C30.594 27.1759 30.594 27.8222 30.2179 28.2146C29.8532 28.5951 29.2696 28.5951 28.9049 28.2148C28.9048 28.2147 28.9048 28.2147 28.9047 28.2146L23.2175 22.2766L22.9081 21.9536L22.5528 22.2252C21.0906 23.3427 19.2916 23.9971 17.3442 23.9971C12.4783 23.9971 8.5 19.8778 8.5 14.7486C8.5 9.61939 12.4783 5.5 17.3442 5.5C22.2101 5.5 26.1884 9.61939 26.1884 14.7486C26.1884 16.7949 25.5519 18.6825 24.4817 20.2127ZM17.3442 21.9976C21.2116 21.9976 24.3133 18.7306 24.3133 14.7486C24.3133 10.7666 21.2116 7.49956 17.3442 7.49956C13.4768 7.49956 10.3751 10.7666 10.3751 14.7486C10.3751 18.7306 13.4768 21.9976 17.3442 21.9976Z" fill="#0E1525" stroke="#FAFAFA"/>
<line x1="0.679253" y1="0.320369" x2="0.499992" y2="33.0028" stroke="#8D8D8D"/>
</svg>
