<svg width="50" height="50" viewBox="0 0 50 50" fill="none" xmlns="http://www.w3.org/2000/svg">
<circle cx="25" cy="25" r="25" fill="#D9D9D9"/>
<path d="M39.4022 17.3712C39.4245 17.6821 39.4245 17.9931 39.4245 18.304C39.4245 27.7868 32.2069 38.7132 19.0152 38.7132C14.9511 38.7132 11.1758 37.5361 8 35.4931C8.57743 35.5596 9.13258 35.5819 9.73223 35.5819C13.0856 35.5819 16.1726 34.4493 18.6377 32.5172C15.4841 32.4505 12.8413 30.3852 11.9308 27.5425C12.375 27.6091 12.8191 27.6535 13.2855 27.6535C13.9296 27.6535 14.5736 27.5647 15.1732 27.4093C11.8864 26.743 9.42126 23.856 9.42126 20.3693V20.2805C10.3762 20.8135 11.4867 21.1466 12.6636 21.191C10.7315 19.9029 9.46569 17.7043 9.46569 15.217C9.46569 13.8845 9.82096 12.6631 10.4428 11.5971C13.9739 15.9499 19.2817 18.7925 25.2334 19.1034C25.1224 18.5704 25.0557 18.0153 25.0557 17.4601C25.0557 13.507 28.2537 10.2868 32.229 10.2868C34.2943 10.2868 36.1598 11.153 37.4701 12.5521C39.0912 12.2412 40.6458 11.6415 42.0227 10.8198C41.4897 12.4855 40.3571 13.8846 38.8692 14.7729C40.3127 14.6175 41.7118 14.2177 42.9999 13.6625C42.0229 15.0838 40.8014 16.3496 39.4022 17.3712Z" fill="#4791A8"/>
</svg>
