<svg width="50" height="50" viewBox="0 0 50 50" fill="none" xmlns="http://www.w3.org/2000/svg">
<circle cx="25" cy="25" r="25" fill="#D9D9D9"/>
<path d="M43.1706 14.694C42.7344 12.8463 41.4493 11.3912 39.8175 10.8973C36.8599 10 25.0001 10 25.0001 10C25.0001 10 13.1404 10 10.1827 10.8973C8.55093 11.3913 7.26579 12.8463 6.82961 14.694C6.03711 18.043 6.03711 25.0303 6.03711 25.0303C6.03711 25.0303 6.03711 32.0177 6.82961 35.3666C7.26579 37.2143 8.55093 38.6088 10.1827 39.1027C13.1404 40 25.0001 40 25.0001 40C25.0001 40 36.8598 40 39.8175 39.1027C41.4493 38.6088 42.7344 37.2143 43.1706 35.3666C43.9631 32.0177 43.9631 25.0303 43.9631 25.0303C43.9631 25.0303 43.9631 18.043 43.1706 14.694ZM21.1213 31.3743V18.6863L31.0337 25.0305L21.1213 31.3743Z" fill="#CE2828"/>
</svg>
